<?xml version="1.0" ?>
<!-- Uploaded to: SVG Repo, www.svgrepo.com, Generator: SVG Repo Mixer Tools -->
<svg width="800px" height="800px" viewBox="0 0 64 64" xmlns="http://www.w3.org/2000/svg">
<defs>
<style>.cls-1{fill:#c73b40;}.cls-2{fill:#d26266;}.cls-3{fill:#e6e6e6;}.cls-4{fill:#ffff97;}.cls-5{fill:#ffffac;}</style>
</defs>
<title/>
<g data-name="Layer 25" id="Layer_25">
<path class="cls-1" d="M51.738,18.326A1,1,0,0,0,51,18H13a1,1,0,0,0-1,1.09l4,44A1,1,0,0,0,17,64H47a1,1,0,0,0,1-.909l4-44A1,1,0,0,0,51.738,18.326Z"/>
<path class="cls-2" d="M51.738,18.326A1,1,0,0,0,51,18H49a1,1,0,0,1,1,1.09l-4,44A1,1,0,0,1,45,64h2a1,1,0,0,0,1-.909l4-44A1,1,0,0,0,51.738,18.326Z"/>
<rect class="cls-3" height="16" rx="1" width="6" x="29"/>
<rect class="cls-4" height="6" rx="1" width="48" x="8" y="14"/>
<path class="cls-5" d="M55,14H53.181a1,1,0,0,1,1,1v4a1,1,0,0,1-1,1H55a1,1,0,0,0,1-1V15A1,1,0,0,0,55,14Z"/>
<path class="cls-4" d="M50.163,33.167a8.146,8.146,0,0,0-8.663.223A7.928,7.928,0,0,0,37,32a8.02,8.02,0,0,0-5,1.76A8.02,8.02,0,0,0,27,32a7.928,7.928,0,0,0-4.5,1.39,8.152,8.152,0,0,0-8.663-.223,1,1,0,0,0-.473.944L16,63.091A1,1,0,0,0,17,64H47a1,1,0,0,0,1-.909l2.64-28.98A1,1,0,0,0,50.163,33.167Z"/>
<path class="cls-5" d="M50.163,33.167A8.057,8.057,0,0,0,45.054,32.1a7.823,7.823,0,0,1,3.109,1.066,1,1,0,0,1,.473.944L46,63.091A1,1,0,0,1,45,64h2a1,1,0,0,0,1-.909l2.64-28.98A1,1,0,0,0,50.163,33.167Z"/>
</g>
</svg>