<?xml version="1.0" ?><svg data-name="Layer 1" id="Layer_1" viewBox="0 0 512 512" xmlns="http://www.w3.org/2000/svg"><defs><style>.cls-1{fill:#e6e6e6;}.cls-2{fill:#4d4d4d;}.cls-3{fill:#333;}.cls-4{fill:#90caf9;}.cls-5{fill:#64b5f6;}.cls-6{fill:#42a5f5;}.cls-7{fill:#e53935;}.cls-7,.cls-8{opacity:0.8;}.cls-7,.cls-8,.cls-9{isolation:isolate;}.cls-8,.cls-9{fill:#f2f2f2;}.cls-9{opacity:0.5;}</style></defs><title/><g data-name=" 0" id="_0"><path class="cls-1" d="M379.38,503.52H217.11a15.27,15.27,0,0,1-15.23-14.25L181.63,185.62H414.86L394.61,489.27A15.27,15.27,0,0,1,379.38,503.52Z"/><path class="cls-2" d="M273.5,497a7.2,7.2,0,0,1-7.09-6L185.47,32a2.11,2.11,0,0,0-2.08-1.75,2.17,2.17,0,0,0-.37,0L99.24,45.06a10.62,10.62,0,0,1-1.84.16h0a10.55,10.55,0,0,1-8.25-4L81.6,31.91a6.36,6.36,0,0,1,3.85-10.26L195.3,2.28a10.59,10.59,0,0,1,12.28,8.58v0l83.89,475.74a7.21,7.21,0,0,1-5.85,8.35l-10.86,1.91A7.26,7.26,0,0,1,273.5,497Z"/><path class="cls-3" d="M197.15,4.24a8.48,8.48,0,0,1,8.34,7l2.21,12.53L289.38,487a5.09,5.09,0,0,1-4.13,5.89l-10.86,1.91a5.08,5.08,0,0,1-5.9-4.11v0l-80.94-459a4.24,4.24,0,0,0-4.91-3.44L98.87,43a8.48,8.48,0,0,1-8.07-3l-7.55-9.36a4.24,4.24,0,0,1,2.56-6.84L183.14,6.58l12.53-2.21a8.53,8.53,0,0,1,1.48-.13m0-4.24a12.82,12.82,0,0,0-2.22.19L182.4,2.4,85.07,19.57a8.48,8.48,0,0,0-5.13,13.68l7.55,9.36A12.72,12.72,0,0,0,99.6,47.15l83.78-14.77,80.94,459A9.32,9.32,0,0,0,275.06,499h.06L286,497.06a9.33,9.33,0,0,0,7.57-10.81h0L211.88,23l-2.21-12.53A12.7,12.7,0,0,0,197.15,0Z"/><path class="cls-4" d="M235.69,327.82A13.48,13.48,0,0,1,223,319l-6.73-18.61a13.44,13.44,0,0,1,8.06-17.2L243,276.43a13.3,13.3,0,0,1,4.54-.8,13.48,13.48,0,0,1,12.65,8.86l6.73,18.61a13.44,13.44,0,0,1-8.06,17.2L240.23,327A13.3,13.3,0,0,1,235.69,327.82Z"/><path class="cls-3" d="M247.51,277.75a11.35,11.35,0,0,1,10.66,7.46l6.73,18.61a11.34,11.34,0,0,1-6.79,14.48l-18.6,6.7a11.21,11.21,0,0,1-3.82.67A11.35,11.35,0,0,1,225,318.25l-6.73-18.61a11.34,11.34,0,0,1,6.79-14.48l18.61-6.73a11.21,11.21,0,0,1,3.82-.67m0-4.24h0a15.43,15.43,0,0,0-5.26.92l-18.61,6.73a15.58,15.58,0,0,0-9.33,19.91L221,319.69a15.61,15.61,0,0,0,14.65,10.25A15.42,15.42,0,0,0,241,329l18.61-6.73a15.57,15.57,0,0,0,9.33-19.91l-6.73-18.61a15.61,15.61,0,0,0-14.65-10.25Z"/><rect class="cls-5" height="34.15" rx="2.34" ry="2.34" transform="translate(-85.99 104.22) rotate(-19.9)" width="4.81" x="251.64" y="280.13"/><path class="cls-4" d="M313.62,316.54a15.59,15.59,0,0,1-4.51-.67L286.37,309a15.71,15.71,0,0,1-10.48-19.56l6.87-22.73a15.81,15.81,0,0,1,15-11.15,15.6,15.6,0,0,1,4.51.67L325,263.1a15.71,15.71,0,0,1,10.48,19.56l-6.87,22.73A15.81,15.81,0,0,1,313.62,316.54Z"/><path class="cls-3" d="M297.81,257.68a13.46,13.46,0,0,1,3.9.58l22.73,6.87A13.61,13.61,0,0,1,333.5,282l-6.87,22.73a13.62,13.62,0,0,1-13,9.64,13.46,13.46,0,0,1-3.9-.58L287,307a13.61,13.61,0,0,1-9.07-16.91l6.87-22.73a13.62,13.62,0,0,1,13-9.64m0-4.24h0a18,18,0,0,0-17.08,12.66l-6.87,22.73a17.83,17.83,0,0,0,11.9,22.2l22.73,6.87a17.71,17.71,0,0,0,5.13.76A18,18,0,0,0,330.69,306l6.87-22.73a17.83,17.83,0,0,0-11.9-22.2l-22.73-6.87a17.71,17.71,0,0,0-5.13-.76Z"/><rect class="cls-5" height="4.81" rx="2.4" ry="2.4" transform="translate(-58.17 500.73) rotate(-70.83)" width="36.05" x="305" y="288.86"/><path class="cls-4" d="M375.23,342.29a15.56,15.56,0,0,1-5.12-.87l-22.43-7.8a15.73,15.73,0,0,1-9.67-20l7.8-22.43a15.72,15.72,0,0,1,14.85-10.53,15.56,15.56,0,0,1,5.12.87l22.43,7.8a15.71,15.71,0,0,1,9.67,20l-7.8,22.43A15.72,15.72,0,0,1,375.23,342.29Z"/><path class="cls-3" d="M360.66,282.81a13.45,13.45,0,0,1,4.42.75l22.43,7.8a13.61,13.61,0,0,1,8.36,17.27l-7.8,22.43a13.62,13.62,0,0,1-12.85,9.11,13.45,13.45,0,0,1-4.42-.75l-22.43-7.8A13.61,13.61,0,0,1,340,314.35l7.8-22.43a13.62,13.62,0,0,1,12.85-9.11m0-4.24h0a17.85,17.85,0,0,0-16.85,12L336,313a17.85,17.85,0,0,0,11,22.67l22.43,7.8a17.82,17.82,0,0,0,22.67-11L399.9,310a17.85,17.85,0,0,0-11-22.67l-22.43-7.8a17.67,17.67,0,0,0-5.82-1Z"/><rect class="cls-5" height="4.81" rx="2.4" ry="2.4" transform="translate(-41.19 576.96) rotate(-70.83)" width="36.05" x="367.09" y="315.04"/><path class="cls-4" d="M278.31,368.43a11.21,11.21,0,0,1-10.52-7.36l-5.39-14.89a11.18,11.18,0,0,1,6.7-14.3l14.9-5.39a11.07,11.07,0,0,1,3.78-.66,11.21,11.21,0,0,1,10.52,7.36l5.39,14.89a11.19,11.19,0,0,1-6.7,14.3l-14.89,5.39A11.07,11.07,0,0,1,278.31,368.43Z"/><path class="cls-3" d="M287.77,327.94a9.08,9.08,0,0,1,8.53,6l5.39,14.89a9.07,9.07,0,0,1-5.43,11.59l-14.89,5.39a9,9,0,0,1-11.59-5.46l-5.39-14.89a9.07,9.07,0,0,1,5.43-11.59l14.89-5.39a9,9,0,0,1,3.06-.54m0-4.24h0a13.19,13.19,0,0,0-4.5.79l-14.89,5.39a13.31,13.31,0,0,0-8,17l5.39,14.89a13.34,13.34,0,0,0,12.52,8.76,13.19,13.19,0,0,0,4.5-.79l14.89-5.39a13.3,13.3,0,0,0,8-17l-5.39-14.89A13.34,13.34,0,0,0,287.77,323.7Z"/><rect class="cls-5" height="28.83" rx="2.16" ry="2.16" transform="translate(-107.17 133.9) rotate(-21.91)" width="4.81" x="289.88" y="329.37"/><path class="cls-5" d="M345,406a15.59,15.59,0,0,1-4.51-.67l-22.73-6.87a15.71,15.71,0,0,1-10.48-19.56l6.87-22.73a15.81,15.81,0,0,1,15-11.15,15.59,15.59,0,0,1,4.51.67l22.73,6.87a15.73,15.73,0,0,1,10.48,19.56L360,394.83A15.81,15.81,0,0,1,345,406Z"/><path class="cls-3" d="M329.14,347.12a13.46,13.46,0,0,1,3.9.58l22.73,6.87a13.61,13.61,0,0,1,9.07,16.91L358,394.22a13.62,13.62,0,0,1-13,9.64,13.46,13.46,0,0,1-3.9-.58l-22.73-6.87a13.61,13.61,0,0,1-9.07-16.91l6.87-22.73a13.62,13.62,0,0,1,13-9.64m0-4.24h0a18,18,0,0,0-17.08,12.66l-6.87,22.73a17.83,17.83,0,0,0,11.9,22.2l22.73,6.87a17.71,17.71,0,0,0,5.13.76,18,18,0,0,0,17-12.66l6.87-22.73a17.83,17.83,0,0,0-11.9-22.2l-22.73-6.87a17.71,17.71,0,0,0-5.13-.76Z"/><rect class="cls-6" height="4.81" rx="2.4" ry="2.4" transform="translate(-122.03 589.13) rotate(-70.83)" width="36.05" x="335.22" y="377.97"/><path class="cls-7" d="M379.38,503.52H217.11a15.27,15.27,0,0,1-15.23-14.25L181.63,296.72H414.86L394.61,489.27A15.27,15.27,0,0,1,379.38,503.52Z"/><path class="cls-3" d="M417.83,158.06a7.63,7.63,0,0,1,7.63,7.63h0V178a7.63,7.63,0,0,1-7.63,7.63h-3L394.61,489.27a15.27,15.27,0,0,1-15.23,14.25H217.11a15.27,15.27,0,0,1-15.23-14.25L181.63,185.62h-3A7.63,7.63,0,0,1,171,178V165.7a7.63,7.63,0,0,1,7.63-7.63h239.2m0-8.48H178.66a16.13,16.13,0,0,0-16.11,16.11V178a16.14,16.14,0,0,0,11.1,15.31l19.78,296.53A23.75,23.75,0,0,0,217.11,512H379.38a23.75,23.75,0,0,0,23.69-22.17L422.85,193.3a16.14,16.14,0,0,0,11.1-15.3V165.7a16.13,16.13,0,0,0-16.11-16.11Z"/><rect class="cls-8" height="36.05" rx="11.87" ry="11.87" width="262.92" x="166.79" y="153.82"/><rect class="cls-9" height="36.05" rx="11.87" ry="11.87" width="262.92" x="166.79" y="153.82"/><path class="cls-3" d="M417.83,158.06a7.63,7.63,0,0,1,7.63,7.63h0V178a7.63,7.63,0,0,1-7.63,7.63H178.66A7.63,7.63,0,0,1,171,178V165.7a7.63,7.63,0,0,1,7.63-7.63h239.2m0-8.48H178.66a16.13,16.13,0,0,0-16.11,16.11V178a16.13,16.13,0,0,0,16.11,16.11H417.83A16.13,16.13,0,0,0,433.95,178V165.7a16.13,16.13,0,0,0-16.11-16.11Z"/></g></svg>