<svg enable-background="new 0 0 40.4 122.88" viewBox="0 0 40.4 122.88" xmlns="http://www.w3.org/2000/svg"><path d="m13.61 0h13.17c1.2 0 2.3.49 3.09 1.29l.01.01c.79.8 1.28 1.89 1.28 3.09v5.24c0 1.21-.49 2.31-1.29 3.1-.05.05-.1.09-.15.14-.65.59-1.47.99-2.37 1.11.35 10.13 3.22 14.79 7.3 24.76 11.64 26.18-1.54 54.13 3.88 69.81 2.63 7.6 4.32 15.3-8.55 14.23h-19.82c-11.05.93-11.52-6.22-8.71-13.79 5.83-15.64-7.7-43.82 4.04-70.24 4.1-10 6.78-14.66 7.08-24.85-.79-.19-1.5-.61-2.07-1.17-.79-.79-1.29-1.89-1.29-3.1v-5.24c0-1.2.49-2.3 1.29-3.09l.01-.01c.81-.8 1.91-1.29 3.1-1.29z" fill="#4c182c"/><g clip-rule="evenodd" fill-rule="evenodd"><path d="m13.61 2h13.17c1.32 0 2.39 1.08 2.39 2.39v5.24c0 1.32-1.08 2.39-2.39 2.39h-13.17c-1.32 0-2.39-1.08-2.39-2.39v-5.24c0-1.31 1.08-2.39 2.39-2.39z" fill="#f9414f"/><path d="m3.54 73.8c-.7-7.77-.89-16.1 1.12-24.65h31.1c2.01 8.55 1.82 16.89 1.12 24.65z" fill="#f9414f"/><path d="m20.09 55.13c3.5 0 6.33 2.84 6.33 6.34s-2.84 6.34-6.33 6.34c-3.5 0-6.34-2.84-6.34-6.34 0-3.51 2.84-6.34 6.34-6.34z" fill="#eadc57"/></g><path d="m20.09 54.01c2.06 0 3.92.84 5.27 2.19s2.18 3.22 2.18 5.27c0 2.06-.84 3.92-2.18 5.27-1.35 1.35-3.22 2.19-5.27 2.19-2.06 0-3.92-.84-5.28-2.19-1.35-1.35-2.19-3.22-2.19-5.28s.83-3.93 2.18-5.28c1.36-1.34 3.23-2.17 5.29-2.17zm3.68 3.77c-.94-.94-2.24-1.52-3.68-1.52s-2.74.58-3.69 1.53c-.94.94-1.52 2.24-1.52 3.69 0 1.44.58 2.74 1.53 3.69.94.94 2.24 1.52 3.69 1.52 1.44 0 2.74-.58 3.68-1.52s1.52-2.25 1.52-3.69c-.01-1.45-.59-2.76-1.53-3.7z" fill="#4c182c"/></svg>